# xmcd
#
# Track frame offsets: 
#        150
#        16060
#        33430
#        47696
#        63437
#        89418
#        107911
#        127854
#        153314
#        173982
#        188512
#        215637
#        239937
#        255330
#        272003
#        300438
#        339017
#
# Disc length: 4782 seconds
#
# Revision: 1
# Processed by: cddbd v1.5.2PL0 Copyright (c) Steve Scherf et al.
# Submitted via: ExactAudioCopy v1.0b3
#
DISCID=de12ac11
DTITLE=Various Artist - Akella Presents - Modern Electric Blues - vol.25  CD2
DTITLE=New!
DYEAR=2013
DGENRE=Blues
TTITLE0=JOHN CAMPBELLJOHN - Knocked Down
TTITLE1=BILLY D and The HOODOOS - Love Makes You Cry
TTITLE2=BLUESBALL - Her Memory
TTITLE3=PONTY BONE - Ain't Got No Sweet
TTITLE4=TIMO GROSS - Gone Mad
TTITLE5=BLUE ROOM - Uphill,Obsession
TTITLE6=Dr. HECTOR and The GROOVE INJECTORS - Bad News
TTITLE7=The TAINTS - The House That Love Lives In
TTITLE8=SCOTT ELLISON - Up In Flames
TTITLE9=EDGAR WINTER - On the Horns of a Dilemma
TTITLE10=DAVE THOMPSON - I'm Here
TTITLE11=WOLF MAIL - Hello
TTITLE12=COLIN JAMES - Fool For You
TTITLE13=CHRIS BELL and 100% BLUES - It's a Shame
TTITLE14=JIMMY THAKERY  and The DRIVERS - Wannabe
TTITLE15=JAMES SOLBERG - Ballad Of A Thin Man
TTITLE16=MASON CASEY - Rainy Day In El Valle
EXTD=
EXTT0=
EXTT1=
EXTT2=
EXTT3=
EXTT4=
EXTT5=
EXTT6=
EXTT7=
EXTT8=
EXTT9=
EXTT10=
EXTT11=
EXTT12=
EXTT13=
EXTT14=
EXTT15=
EXTT16=
PLAYORDER=
